#!OML:ASF F:\VICON\USERDATA\INSTALL\rory3\rory3.ASF
:FULLY-SPECIFIED
:DEGREES
864
root -14.7988 17.9023 9.31988 181.594 56.5992 174.263
lowerback 4.40715 1.18355 -0.506688
upperback 1.76548 1.5972 0.383515
thorax -0.682363 0.811645 0.598207
lowerneck -6.70596 -2.27842 -6.48282
upperneck 20.9551 -1.72383 1.04711
head 7.63222 -0.96618 1.3193
rclavicle -7.7526e-015 3.18055e-015
rhumerus -33.3949 -2.60423 -80.2481
rradius 28.4903
rwrist -5.09709
rhand -12.1177 15.451
rfingers 7.12502
rthumb 13.9436 -14.0615
lclavicle -7.7526e-015 3.18055e-015
lhumerus -39.5219 4.43737 79.3874
lradius 25.7501
lwrist 5.8962
lhand -4.30949 28.3568
lfingers 7.12502
lthumb 21.4567 57.1885
rfemur -3.1951 3.52273 22.4634
rtibia 17.1939
rfoot -19.8895 -16.8098
rtoes -4.47056
lfemur -29.388 -6.15726 -22.0107
ltibia 18.7635
lfoot -10.4034 9.25458
ltoes -15.0444
865
root -14.7525 17.8932 9.27986 181.63 56.7782 174.274
lowerback 4.37179 1.21414 -0.707616
upperback 1.74908 1.62859 0.346854
thorax -0.684316 0.826448 0.672177
lowerneck -6.77379 -2.25867 -6.49966
upperneck 21.0504 -1.67675 1.01182
head 7.67438 -0.948245 1.31472
rclavicle -1.18575e-013 2.46493e-014
rhumerus -33.3907 -2.60958 -80.2677
rradius 28.4684
rwrist -5.00374
rhand -12.0527 15.3443
rfingers 7.12502
rthumb 14.0062 -14.1639
lclavicle -1.18575e-013 2.46493e-014
lhumerus -39.5779 4.44006 79.4463
lradius 26.0034
lwrist 6.20821
lhand -4.38363 28.4385
lfingers 7.12502
lthumb 21.3855 57.2783
rfemur -2.95666 3.70239 22.4653
rtibia 17.1024
rfoot -20.0435 -16.8584
rtoes -4.36434
lfemur -29.3494 -6.36103 -21.891
ltibia 18.9679
lfoot -10.3956 9.25221
ltoes -14.7323
866
root -14.7053 17.8818 9.23548 181.641 57.0086 174.279
lowerback 4.34282 1.25124 -0.862016
upperback 1.74435 1.67062 0.270813
thorax -0.675778 0.846906 0.679264
lowerneck -6.90256 -2.2335 -6.47369
upperneck 21.1823 -1.62802 0.993606
head 7.73896 -0.925563 1.30857
rclavicle 6.04305e-014 -7.95139e-016
rhumerus -33.3793 -2.58394 -80.3613
rradius 28.4685
rwrist -4.92863
rhand -12.0566 15.2329
rfingers 7.12502
rthumb 14.0025 -14.2755
lclavicle 6.04305e-014 -7.95139e-016
lhumerus -39.5839 4.49346 79.4083
lradius 26.1728
lwrist 6.29921
lhand -4.18475 28.4429
lfingers 7.12502
lthumb 21.5765 57.2609
rfemur -2.72581 3.83643 22.4389
rtibia 17.072
rfoot -20.2385 -16.8175
rtoes -4.53125
lfemur -29.2105 -6.35759 -21.8648
ltibia 19.092
lfoot -10.2581 9.12277
ltoes -14.6058
867
root -14.6572 17.872 9.18967 181.758 57.2612 174.408
lowerback 4.30265 1.31132 -0.894228
upperback 1.74078 1.74826 0.171401
thorax -0.656314 0.885581 0.592599
lowerneck -6.99696 -2.22814 -6.48397
upperneck 21.2893 -1.63287 1.10537
head 7.79213 -0.919725 1.34678
rclavicle -7.34509e-014 -1.78906e-014
rhumerus -33.4074 -2.56316 -80.4908
rradius 28.4597
rwrist -4.86934
rhand -12.0181 15.2491
rfingers 7.12502
rthumb 14.0396 -14.2567
lclavicle -7.34509e-014 -1.78906e-014
lhumerus -39.5687 4.31249 79.4062
lradius 26.3615
lwrist 6.50534
lhand -3.9929 28.4157
lfingers 7.12502
lthumb 21.7608 57.2124
rfemur -2.52083 3.85933 22.4675
rtibia 17.0622
rfoot -20.4273 -16.6481
rtoes -4.55074
lfemur -29.0295 -6.28514 -21.7827
ltibia 19.1697
lfoot -10.127 8.95109
ltoes -14.2129
868
root -14.6076 17.8591 9.14356 181.886 57.4135 174.585
lowerback 4.25089 1.34927 -0.960825
upperback 1.75668 1.79641 0.121267
thorax -0.612355 0.909366 0.577775
lowerneck -7.01509 -2.21757 -6.51352
upperneck 21.336 -1.62956 1.19554
head 7.81148 -0.912609 1.38202
rclavicle -3.93594e-014 -3.97569e-016
rhumerus -33.452 -2.41771 -80.6072
rradius 28.5136
rwrist -5.01251
rhand -11.905 15.2891
rfingers 7.12502
rthumb 14.1485 -14.2092
lclavicle -3.93594e-014 -3.97569e-016
lhumerus -39.589 4.14502 79.4891
lradius 26.6819
lwrist 6.81286
lhand -4.1248 28.2713
lfingers 7.12502
lthumb 21.6341 57.0827
rfemur -2.27347 3.99232 22.5528
rtibia 17.0664
rfoot -20.6984 -16.6566
rtoes -4.36706
lfemur -28.8162 -6.51738 -21.5903
ltibia 19.2328
lfoot -10.1879 8.90019
ltoes -14.2109
869
root -14.5564 17.8435 9.09531 182.042 57.5585 174.77
lowerback 4.17019 1.37242 -1.02959
upperback 1.76323 1.82492 0.0814892
thorax -0.56192 0.923119 0.576399
lowerneck -6.98235 -2.17395 -6.51273
upperneck 21.3108 -1.57829 1.22037
head 7.795 -0.88604 1.3947
rclavicle 3.26007e-014 1.74931e-014
rhumerus -33.4858 -2.22611 -80.7294
rradius 28.5829
rwrist -5.17217
rhand -11.7357 15.4355
rfingers 7.12502
rthumb 14.3116 -14.0512
lclavicle 3.26007e-014 1.74931e-014
lhumerus -39.6458 3.91869 79.6473
lradius 27.0733
lwrist 7.26679
lhand -4.39004 28.1643
lfingers 7.12502
lthumb 21.3794 57.0048
rfemur -2.00425 4.14965 22.6421
rtibia 17.039
rfoot -21.0197 -16.6721
rtoes -4.1365
lfemur -28.6024 -6.91227 -21.3577
ltibia 19.3091
lfoot -10.377 8.95587
ltoes -14.1757
870
root -14.5036 17.8286 9.04443 182.03 57.8119 174.755
lowerback 4.09519 1.40838 -1.20197
upperback 1.76539 1.86641 0.00796904
thorax -0.521517 0.943086 0.597675
lowerneck -7.04871 -2.12526 -6.53091
upperneck 21.352 -1.51166 1.25642
head 7.81822 -0.853548 1.41542
rclavicle 6.0033e-014 -2.10712e-014
rhumerus -33.4858 -2.16857 -80.7964
rradius 28.5472
rwrist -5.12292
rhand -11.7215 15.6656
rfingers 7.12502
rthumb 14.3254 -13.8202
lclavicle 6.0033e-014 -2.10712e-014
lhumerus -39.6439 3.78343 79.7667
lradius 27.3638
lwrist 7.61625
lhand -4.57484 28.0839
lfingers 7.12502
lthumb 21.2019 56.9444
rfemur -1.69675 4.21995 22.5752
rtibia 16.938
rfoot -21.2764 -16.4999
rtoes -4.06047
lfemur -28.3196 -6.92427 -21.3877
ltibia 19.3924
lfoot -10.391 8.868
ltoes -14.2901
